<svg xmlns="http://www.w3.org/2000/svg" viewBox="0 0 64 64"><defs><style>.cls-1{fill:#dfe1ea}.cls-2{fill:#adb2c7}.cls-5{fill:#fff}</style></defs><g id="_2-Coding" data-name="2-Coding"><path class="cls-1" d="M63 11v50a2.006 2.006 0 0 1-2 2H3a2.006 2.006 0 0 1-2-2V11z"/><path class="cls-2" d="M61 1a2.006 2.006 0 0 1 2 2v8H1V3a2.006 2.006 0 0 1 2-2z"/><path d="M39.6 21c-7.6 0-7.6-2-15.2-2s-7.6 2-15.2 2A26.743 26.743 0 0 1 1 19.844v8A26.743 26.743 0 0 0 9.2 29c7.6 0 7.6-2 15.2-2s7.6 2 15.2 2 7.6-2 15.2-2a26.787 26.787 0 0 1 8.2 1.157v-8A26.787 26.787 0 0 0 54.8 19c-7.6 0-7.6 2-15.2 2z" style="fill:#cdd2e1"/><path d="M1 11v8.844A26.743 26.743 0 0 0 9.2 21c7.6 0 7.6-2 15.2-2s7.6 2 15.2 2 7.6-2 15.2-2a26.787 26.787 0 0 1 8.2 1.157V11z" style="fill:#f6fafd"/><path class="cls-2" d="M61.054 16H38.946a.945.945 0 0 0-.946.946v20.108a.945.945 0 0 1-.946.946h-3.108a.945.945 0 0 0-.946.946v23.108a.945.945 0 0 0 .946.946h22.108a.945.945 0 0 0 .946-.946V41.946a.945.945 0 0 1 .946-.946h3.108a.945.945 0 0 0 .946-.946V16.946a.945.945 0 0 0-.946-.946z"/><circle class="cls-2" cx="20" cy="31" r="13"/><path class="cls-5" d="M38 23h20v14H38z"/><path style="fill:#ffa426" d="M38 15h20v8H38z"/><path class="cls-1" d="M41 26h14v8H41z"/><path class="cls-5" d="M33 45h20v14H33z"/><path style="fill:#8dd5f6" d="M33 37h20v8H33z"/><path class="cls-1" d="M36 48h14v8H36z"/><circle class="cls-5" cx="18" cy="28" r="13"/><path class="cls-5" d="M5 5h2v2H5zM14 5h45v2H14zM41 18h2v2h-2zM45 18h2v2h-2zM40 40h2v2h-2zM36 40h2v2h-2z"/><path d="M61 0H3a3 3 0 0 0-3 3v58a3 3 0 0 0 3 3h58a3 3 0 0 0 3-3V3a3 3 0 0 0-3-3zM3 2h58a1 1 0 0 1 1 1v7H2V3a1 1 0 0 1 1-1zm58 60H3a1 1 0 0 1-1-1V12h60v49a1 1 0 0 1-1 1z"/><path d="M18 42A14 14 0 1 0 4 28a14.015 14.015 0 0 0 14 14zm0-26A12 12 0 1 1 6 28a12.013 12.013 0 0 1 12-12z"/><path d="M14.707 32.293 10.414 28l4.293-4.293-1.414-1.414-5 5a1 1 0 0 0 0 1.414l5 5zM22.707 33.707l5-5a1 1 0 0 0 0-1.414l-5-5-1.414 1.414L25.586 28l-4.293 4.293zM58 14H38a1 1 0 0 0-1 1v21h-4a1 1 0 0 0-1 1v22a1 1 0 0 0 1 1h20a1 1 0 0 0 1-1V38h4a1 1 0 0 0 1-1V15a1 1 0 0 0-1-1zm-1 2v6H39v-6zM34 58V46h18v12zm18-14H34v-6h18zm1-8H39V24h18v12zM7 56h21v2H7zM7 51h21v2H7zM15 46h13v2H15zM7 46h4v2H7zM9 5h2v2H9z"/><path transform="rotate(-80.528 18 28)" d="M11.917 27h12.166v2H11.917z"/></g></svg>